<svg id="Objects" xmlns="http://www.w3.org/2000/svg" width="500" height="500" viewBox="0 0 500 500"><defs><style>.cls-1{fill:#6f6f6f;}.cls-2{fill:#dbdbdb;}.cls-3{fill:#8b8b8b;}.cls-4{fill:#bdbdbd;}.cls-5{fill:#fff;}.cls-6{fill:#8bc0ff;}</style></defs><path class="cls-1" d="M317.18,254.3,304,246.7l48.56-28c2.29-1.33,2.29-3.48,0-4.8L303,185.23a9.24,9.24,0,0,0-8.32,0l-48.55,28-13.17-7.6,48.55-28c9.55-5.52,25.1-5.52,34.65,0l49.6,28.63c9.56,5.52,9.56,14.5,0,20Z"/><path class="cls-2" d="M338.43,257.65c0-7-4.28-15.22-9.56-18.27l-88-50.78c-2.36-1.37-4.52-1.47-6.19-.53h0l-105,61,101.57,76.53,103.48-60.05a4.65,4.65,0,0,0,.91-.54h0C337.36,263.74,338.43,261.17,338.43,257.65Z"/><path class="cls-3" d="M231.24,325.63l103.48-60.05a4.65,4.65,0,0,0,.91-.54h0c1.73-1.3,2.8-3.87,2.8-7.39a23.37,23.37,0,0,0-2.58-10.17l-118,68.1Z"/><path class="cls-4" d="M224.63,325.36l-88-50.79c-5.28-3-9.56-11.22-9.56-18.26h0c0-7,4.28-10.28,9.56-7.23l88,50.79c5.28,3.05,9.56,11.22,9.56,18.26h0C234.19,325.17,229.91,328.41,224.63,325.36Z"/><path class="cls-5" d="M225.69,299.39l-88-50.79c-2.43-1.4-4.64-1.46-6.32-.45a6.65,6.65,0,0,1,5.26.93l88,50.79c5.28,3.05,9.56,11.22,9.56,18.26h0c0,3.81-1.26,6.49-3.24,7.68,2.59-.79,4.3-3.71,4.3-8.16h0C235.25,310.61,231,302.44,225.69,299.39Z"/><path class="cls-5" d="M211.45,308.23l-10.57-6.1a4.52,4.52,0,0,1-1.91-3.64h0c0-1.4.85-2.05,1.91-1.44l10.57,6.1a4.58,4.58,0,0,1,1.91,3.64h0C213.36,308.2,212.5,308.84,211.45,308.23Z"/><path class="cls-6" d="M223.38,236c3.19-1.88,3.16-4.89-.07-6.71a12.86,12.86,0,0,0-11.62.12c-3.19,1.89-3.16,4.89.07,6.71A12.83,12.83,0,0,0,223.38,236Z"/><path class="cls-5" d="M241.09,246c3.19-1.88,3.16-4.89-.07-6.71a12.86,12.86,0,0,0-11.62.12c-3.19,1.89-3.16,4.9.07,6.72A12.86,12.86,0,0,0,241.09,246Z"/><path class="cls-5" d="M258.81,256c3.19-1.88,3.16-4.89-.07-6.71a12.85,12.85,0,0,0-11.63.13c-3.19,1.88-3.16,4.89.07,6.71A12.85,12.85,0,0,0,258.81,256Z"/></svg>